<mxfile host="app.diagrams.net" modified="2023-07-25T08:30:28.975Z" agent="Mozilla/5.0 (Macintosh; Intel Mac OS X 10_15_7) AppleWebKit/537.36 (KHTML, like Gecko) Chrome/115.0.0.0 Safari/537.36" version="21.1.4" etag="BN3PWP-g_Tq4MA6e6kXJ" type="github">
  <diagram name="페이지-1" id="CLbbrw-kFz6tnxKKVfks">
    <mxGraphModel>
      <root>
        <mxCell id="0" />
        <mxCell id="1" parent="0" />
      </root>
    </mxGraphModel>
  </diagram>
</mxfile>
